<svg width="60" height="47" viewBox="0 0 60 47" fill="none" xmlns="http://www.w3.org/2000/svg">
<path d="M23.8054 0.831116L0.529053 10.4495L23.8054 20.0679L47.0818 10.4495L23.8054 0.831116Z" fill="#C0AD45"/>
<path d="M14.3579 4.75531L9.97687 6.52509L33.2532 16.1819L37.5961 14.3737L14.3579 4.75531Z" fill="#F7C604"/>
<path d="M0.529053 10.4496V36.9578L23.8054 46.5762V20.0679L0.529053 10.4496Z" fill="#816A07"/>
<path d="M47.0818 10.4496V36.9578L23.8054 46.5762V20.0679L47.0818 10.4496Z" fill="#FFD700"/>
<path opacity="0.1" d="M47.0817 23.9922C46.396 23.8383 45.7103 23.7614 44.9865 23.7614C39.3483 23.7614 34.7769 28.3782 34.7769 34.0723C34.7769 36.727 35.7673 39.1508 37.4054 40.959L47.0817 36.9578V23.9922Z" fill="#0C1E5B"/>
<path d="M33.2531 16.182V27.3008L37.5959 25.4926V14.3737L33.2531 16.182Z" fill="#F7C604"/>
<path d="M49.1389 43.6137C54.7775 43.6137 59.3485 38.9973 59.3485 33.3028C59.3485 27.6082 54.7775 22.9919 49.1389 22.9919C43.5003 22.9919 38.9293 27.6082 38.9293 33.3028C38.9293 38.9973 43.5003 43.6137 49.1389 43.6137Z" fill="#FF5B5B"/>
<path d="M48.0724 37.304C47.7676 37.304 47.501 37.1886 47.2724 36.9577L44.0343 33.6875C43.5771 33.2258 43.5771 32.4948 44.0343 32.0716C44.4914 31.6099 45.2152 31.6099 45.6343 32.0716L48.0724 34.5339L52.6439 29.9171C53.101 29.4554 53.8248 29.4554 54.2439 29.9171C54.701 30.3788 54.701 31.1098 54.2439 31.533L48.8724 36.9577C48.6438 37.1886 48.3772 37.304 48.0724 37.304Z" fill="white"/>
<path d="M8.07191 33.3798L5.5576 28.1474L3.19568 31.2637L4.49093 31.8408V35.2265L6.58618 36.1883V32.7642L8.07191 33.3798Z" fill="#F2F5F3"/>
</svg>
