<svg width="231" height="90" viewBox="0 0 231 90" fill="none" xmlns="http://www.w3.org/2000/svg">
<path d="M10.4525 73.5298C10.5725 73.5298 10.6325 73.5898 10.6325 73.7098V74.8618C10.6325 74.9818 10.5725 75.0418 10.4525 75.0418H6.99652C6.94852 75.0418 6.92452 75.0658 6.92452 75.1138V85.9498C6.92452 86.0698 6.86452 86.1298 6.74452 86.1298H5.37652C5.25652 86.1298 5.19652 86.0698 5.19652 85.9498V75.1138C5.19652 75.0658 5.17252 75.0418 5.12452 75.0418H1.83052C1.71052 75.0418 1.65052 74.9818 1.65052 74.8618V73.7098C1.65052 73.5898 1.71052 73.5298 1.83052 73.5298H10.4525ZM15.5062 76.8238C16.2382 76.8238 16.8742 76.9558 17.4142 77.2198C17.9662 77.4718 18.3862 77.8318 18.6742 78.2998C18.9742 78.7558 19.1242 79.2778 19.1242 79.8658V85.9498C19.1242 86.0698 19.0642 86.1298 18.9442 86.1298H17.5762C17.4562 86.1298 17.3962 86.0698 17.3962 85.9498V85.3018C17.3962 85.2418 17.3662 85.2298 17.3062 85.2658C16.9942 85.5898 16.6102 85.8418 16.1542 86.0218C15.7102 86.1898 15.2122 86.2738 14.6602 86.2738C13.7722 86.2738 13.0342 86.0518 12.4462 85.6078C11.8702 85.1518 11.5822 84.4678 11.5822 83.5558C11.5822 82.6198 11.9062 81.8878 12.5542 81.3598C13.2142 80.8198 14.1322 80.5498 15.3082 80.5498H17.3242C17.3722 80.5498 17.3962 80.5258 17.3962 80.4778V79.9918C17.3962 79.4638 17.2402 79.0558 16.9282 78.7678C16.6282 78.4678 16.1662 78.3178 15.5422 78.3178C15.0382 78.3178 14.6242 78.4198 14.3002 78.6238C13.9882 78.8158 13.7962 79.0798 13.7242 79.4158C13.6882 79.5358 13.6162 79.5898 13.5082 79.5778L12.0502 79.3798C11.9302 79.3558 11.8762 79.3078 11.8882 79.2358C11.9842 78.5278 12.3622 77.9518 13.0222 77.5078C13.6822 77.0518 14.5102 76.8238 15.5062 76.8238ZM15.0382 84.8158C15.6742 84.8158 16.2262 84.6478 16.6942 84.3118C17.1622 83.9758 17.3962 83.5498 17.3962 83.0338V81.9718C17.3962 81.9238 17.3722 81.8998 17.3242 81.8998H15.6322C14.9242 81.8998 14.3602 82.0378 13.9402 82.3138C13.5202 82.5898 13.3102 82.9738 13.3102 83.4658C13.3102 83.9098 13.4662 84.2458 13.7782 84.4738C14.1022 84.7018 14.5222 84.8158 15.0382 84.8158ZM15.5602 89.6398C15.2482 89.6398 14.9842 89.5318 14.7682 89.3158C14.5642 89.1118 14.4622 88.8538 14.4622 88.5418C14.4622 88.2178 14.5642 87.9538 14.7682 87.7498C14.9842 87.5458 15.2482 87.4438 15.5602 87.4438C15.8842 87.4438 16.1482 87.5458 16.3522 87.7498C16.5562 87.9538 16.6582 88.2178 16.6582 88.5418C16.6582 88.8538 16.5502 89.1118 16.3342 89.3158C16.1302 89.5318 15.8722 89.6398 15.5602 89.6398ZM13.2382 75.8158C13.1662 75.8158 13.1182 75.7978 13.0942 75.7618C13.0702 75.7138 13.0822 75.6598 13.1302 75.5998L14.5522 73.6378C14.6002 73.5658 14.6782 73.5298 14.7862 73.5298H16.3162C16.4242 73.5298 16.5022 73.5658 16.5502 73.6378L17.9722 75.5998C17.9962 75.6238 18.0082 75.6598 18.0082 75.7078C18.0082 75.7318 17.9962 75.7558 17.9722 75.7798C17.9482 75.8038 17.9122 75.8158 17.8642 75.8158H16.8022C16.7062 75.8158 16.6342 75.7798 16.5862 75.7078L15.6322 74.3398C15.6202 74.3158 15.6022 74.3038 15.5782 74.3038C15.5542 74.3038 15.5362 74.3158 15.5242 74.3398L14.5342 75.7078C14.4862 75.7798 14.4142 75.8158 14.3182 75.8158H13.2382ZM25.543 76.8418C26.527 76.8418 27.307 77.1298 27.883 77.7058C28.459 78.2698 28.747 79.0378 28.747 80.0098V85.9498C28.747 86.0698 28.687 86.1298 28.567 86.1298H27.199C27.079 86.1298 27.019 86.0698 27.019 85.9498V80.3518C27.019 79.7518 26.845 79.2658 26.497 78.8938C26.149 78.5218 25.687 78.3358 25.111 78.3358C24.547 78.3358 24.085 78.5218 23.725 78.8938C23.365 79.2658 23.185 79.7458 23.185 80.3338V85.9498C23.185 86.0698 23.125 86.1298 23.005 86.1298H21.637C21.517 86.1298 21.457 86.0698 21.457 85.9498V77.1478C21.457 77.0278 21.517 76.9678 21.637 76.9678H23.005C23.125 76.9678 23.185 77.0278 23.185 77.1478V77.7958C23.185 77.8198 23.191 77.8378 23.203 77.8498C23.227 77.8618 23.245 77.8558 23.257 77.8318C23.773 77.1718 24.535 76.8418 25.543 76.8418ZM43.0424 73.5298C43.1624 73.5298 43.2224 73.5898 43.2224 73.7098V74.8618C43.2224 74.9818 43.1624 75.0418 43.0424 75.0418H39.5864C39.5384 75.0418 39.5144 75.0658 39.5144 75.1138V85.9498C39.5144 86.0698 39.4544 86.1298 39.3344 86.1298H37.9664C37.8464 86.1298 37.7864 86.0698 37.7864 85.9498V75.1138C37.7864 75.0658 37.7624 75.0418 37.7144 75.0418H34.4204C34.3004 75.0418 34.2404 74.9818 34.2404 74.8618V73.7098C34.2404 73.5898 34.3004 73.5298 34.4204 73.5298H43.0424ZM48.096 76.8238C48.828 76.8238 49.464 76.9558 50.004 77.2198C50.556 77.4718 50.976 77.8318 51.264 78.2998C51.564 78.7558 51.714 79.2778 51.714 79.8658V85.9498C51.714 86.0698 51.654 86.1298 51.534 86.1298H50.166C50.046 86.1298 49.986 86.0698 49.986 85.9498V85.3018C49.986 85.2418 49.956 85.2298 49.896 85.2658C49.584 85.5898 49.2 85.8418 48.744 86.0218C48.3 86.1898 47.802 86.2738 47.25 86.2738C46.362 86.2738 45.624 86.0518 45.036 85.6078C44.46 85.1518 44.172 84.4678 44.172 83.5558C44.172 82.6198 44.496 81.8878 45.144 81.3598C45.804 80.8198 46.722 80.5498 47.898 80.5498H49.914C49.962 80.5498 49.986 80.5258 49.986 80.4778V79.9918C49.986 79.4638 49.83 79.0558 49.518 78.7678C49.218 78.4678 48.756 78.3178 48.132 78.3178C47.628 78.3178 47.214 78.4198 46.89 78.6238C46.578 78.8158 46.386 79.0798 46.314 79.4158C46.278 79.5358 46.206 79.5898 46.098 79.5778L44.64 79.3798C44.52 79.3558 44.466 79.3078 44.478 79.2358C44.574 78.5278 44.952 77.9518 45.612 77.5078C46.272 77.0518 47.1 76.8238 48.096 76.8238ZM47.628 84.8158C48.264 84.8158 48.816 84.6478 49.284 84.3118C49.752 83.9758 49.986 83.5498 49.986 83.0338V81.9718C49.986 81.9238 49.962 81.8998 49.914 81.8998H48.222C47.514 81.8998 46.95 82.0378 46.53 82.3138C46.11 82.5898 45.9 82.9738 45.9 83.4658C45.9 83.9098 46.056 84.2458 46.368 84.4738C46.692 84.7018 47.112 84.8158 47.628 84.8158ZM45.828 75.8158C45.756 75.8158 45.708 75.7978 45.684 75.7618C45.66 75.7138 45.672 75.6598 45.72 75.5998L47.142 73.6378C47.19 73.5658 47.268 73.5298 47.376 73.5298H48.906C49.014 73.5298 49.092 73.5658 49.14 73.6378L50.562 75.5998C50.586 75.6238 50.598 75.6598 50.598 75.7078C50.598 75.7318 50.586 75.7558 50.562 75.7798C50.538 75.8038 50.502 75.8158 50.454 75.8158H49.392C49.296 75.8158 49.224 75.7798 49.176 75.7078L48.222 74.3398C48.21 74.3158 48.192 74.3038 48.168 74.3038C48.144 74.3038 48.126 74.3158 48.114 74.3398L47.124 75.7078C47.076 75.7798 47.004 75.8158 46.908 75.8158H45.828ZM63.5688 76.8418C64.4808 76.8418 65.2008 77.1178 65.7288 77.6698C66.2568 78.2098 66.5208 78.9658 66.5208 79.9378V85.9498C66.5208 86.0698 66.4608 86.1298 66.3408 86.1298H64.9908C64.8708 86.1298 64.8108 86.0698 64.8108 85.9498V80.2978C64.8108 79.6978 64.6428 79.2238 64.3068 78.8758C63.9828 78.5158 63.5448 78.3358 62.9928 78.3358C62.4408 78.3358 61.9908 78.5098 61.6428 78.8578C61.2948 79.2058 61.1208 79.6738 61.1208 80.2618V85.9498C61.1208 86.0698 61.0608 86.1298 60.9408 86.1298H59.5908C59.4708 86.1298 59.4108 86.0698 59.4108 85.9498V80.2978C59.4108 79.6978 59.2428 79.2238 58.9068 78.8758C58.5828 78.5158 58.1448 78.3358 57.5928 78.3358C57.0408 78.3358 56.5968 78.5098 56.2608 78.8578C55.9368 79.2058 55.7748 79.6738 55.7748 80.2618V85.9498C55.7748 86.0698 55.7148 86.1298 55.5948 86.1298H54.2268C54.1068 86.1298 54.0468 86.0698 54.0468 85.9498V77.1478C54.0468 77.0278 54.1068 76.9678 54.2268 76.9678H55.5948C55.7148 76.9678 55.7748 77.0278 55.7748 77.1478V77.7598C55.7748 77.7838 55.7808 77.8018 55.7928 77.8138C55.8168 77.8258 55.8408 77.8198 55.8648 77.7958C56.3928 77.1598 57.1608 76.8418 58.1688 76.8418C58.7808 76.8418 59.3028 76.9618 59.7348 77.2018C60.1668 77.4298 60.5028 77.7718 60.7428 78.2278C60.7788 78.2758 60.8148 78.2758 60.8508 78.2278C61.1388 77.7598 61.5168 77.4118 61.9848 77.1838C62.4648 76.9558 62.9928 76.8418 63.5688 76.8418ZM80.7474 73.5298C80.8674 73.5298 80.9274 73.5898 80.9274 73.7098V74.8618C80.9274 74.9818 80.8674 75.0418 80.7474 75.0418H77.2914C77.2434 75.0418 77.2194 75.0658 77.2194 75.1138V85.9498C77.2194 86.0698 77.1594 86.1298 77.0394 86.1298H75.6714C75.5514 86.1298 75.4914 86.0698 75.4914 85.9498V75.1138C75.4914 75.0658 75.4674 75.0418 75.4194 75.0418H72.1254C72.0054 75.0418 71.9454 74.9818 71.9454 74.8618V73.7098C71.9454 73.5898 72.0054 73.5298 72.1254 73.5298H80.7474ZM85.8011 76.8238C86.5331 76.8238 87.1691 76.9558 87.7091 77.2198C88.2611 77.4718 88.6811 77.8318 88.9691 78.2998C89.2691 78.7558 89.4191 79.2778 89.4191 79.8658V85.9498C89.4191 86.0698 89.3591 86.1298 89.2391 86.1298H87.8711C87.7511 86.1298 87.6911 86.0698 87.6911 85.9498V85.3018C87.6911 85.2418 87.6611 85.2298 87.6011 85.2658C87.2891 85.5898 86.9051 85.8418 86.4491 86.0218C86.0051 86.1898 85.5071 86.2738 84.9551 86.2738C84.0671 86.2738 83.3291 86.0518 82.7411 85.6078C82.1651 85.1518 81.8771 84.4678 81.8771 83.5558C81.8771 82.6198 82.2011 81.8878 82.8491 81.3598C83.5091 80.8198 84.4271 80.5498 85.6031 80.5498H87.6191C87.6671 80.5498 87.6911 80.5258 87.6911 80.4778V79.9918C87.6911 79.4638 87.5351 79.0558 87.2231 78.7678C86.9231 78.4678 86.4611 78.3178 85.8371 78.3178C85.3331 78.3178 84.9191 78.4198 84.5951 78.6238C84.2831 78.8158 84.0911 79.0798 84.0191 79.4158C83.9831 79.5358 83.9111 79.5898 83.8031 79.5778L82.3451 79.3798C82.2251 79.3558 82.1711 79.3078 82.1831 79.2358C82.2791 78.5278 82.6571 77.9518 83.3171 77.5078C83.9771 77.0518 84.8051 76.8238 85.8011 76.8238ZM85.3331 84.8158C85.9691 84.8158 86.5211 84.6478 86.9891 84.3118C87.4571 83.9758 87.6911 83.5498 87.6911 83.0338V81.9718C87.6911 81.9238 87.6671 81.8998 87.6191 81.8998H85.9271C85.2191 81.8998 84.6551 82.0378 84.2351 82.3138C83.8151 82.5898 83.6051 82.9738 83.6051 83.4658C83.6051 83.9098 83.7611 84.2458 84.0731 84.4738C84.3971 84.7018 84.8171 84.8158 85.3331 84.8158ZM85.8551 89.6398C85.5431 89.6398 85.2791 89.5318 85.0631 89.3158C84.8591 89.1118 84.7571 88.8538 84.7571 88.5418C84.7571 88.2178 84.8591 87.9538 85.0631 87.7498C85.2791 87.5458 85.5431 87.4438 85.8551 87.4438C86.1791 87.4438 86.4431 87.5458 86.6471 87.7498C86.8511 87.9538 86.9531 88.2178 86.9531 88.5418C86.9531 88.8538 86.8451 89.1118 86.6291 89.3158C86.4251 89.5318 86.1671 89.6398 85.8551 89.6398ZM83.5331 75.8158C83.4611 75.8158 83.4131 75.7978 83.3891 75.7618C83.3651 75.7138 83.3771 75.6598 83.4251 75.5998L84.8471 73.6378C84.8951 73.5658 84.9731 73.5298 85.0811 73.5298H86.6111C86.7191 73.5298 86.7971 73.5658 86.8451 73.6378L88.2671 75.5998C88.2911 75.6238 88.3031 75.6598 88.3031 75.7078C88.3031 75.7318 88.2911 75.7558 88.2671 75.7798C88.2431 75.8038 88.2071 75.8158 88.1591 75.8158H87.0971C87.0011 75.8158 86.9291 75.7798 86.8811 75.7078L85.9271 74.3398C85.9151 74.3158 85.8971 74.3038 85.8731 74.3038C85.8491 74.3038 85.8311 74.3158 85.8191 74.3398L84.8291 75.7078C84.7811 75.7798 84.7091 75.8158 84.6131 75.8158H83.5331ZM95.8379 76.8418C96.8219 76.8418 97.6019 77.1298 98.1779 77.7058C98.7539 78.2698 99.0419 79.0378 99.0419 80.0098V85.9498C99.0419 86.0698 98.9819 86.1298 98.8619 86.1298H97.4939C97.3739 86.1298 97.3139 86.0698 97.3139 85.9498V80.3518C97.3139 79.7518 97.1399 79.2658 96.7919 78.8938C96.4439 78.5218 95.9819 78.3358 95.4059 78.3358C94.8419 78.3358 94.3799 78.5218 94.0199 78.8938C93.6599 79.2658 93.4799 79.7458 93.4799 80.3338V85.9498C93.4799 86.0698 93.4199 86.1298 93.2999 86.1298H91.9319C91.8119 86.1298 91.7519 86.0698 91.7519 85.9498V77.1478C91.7519 77.0278 91.8119 76.9678 91.9319 76.9678H93.2999C93.4199 76.9678 93.4799 77.0278 93.4799 77.1478V77.7958C93.4799 77.8198 93.4859 77.8378 93.4979 77.8498C93.5219 77.8618 93.5399 77.8558 93.5519 77.8318C94.0679 77.1718 94.8299 76.8418 95.8379 76.8418ZM105.507 86.1298C105.387 86.1298 105.327 86.0698 105.327 85.9498V73.7098C105.327 73.5898 105.387 73.5298 105.507 73.5298H106.875C106.995 73.5298 107.055 73.5898 107.055 73.7098V84.5638C107.055 84.6118 107.079 84.6358 107.127 84.6358H113.337C113.457 84.6358 113.517 84.6958 113.517 84.8158V85.9498C113.517 86.0698 113.457 86.1298 113.337 86.1298H105.507ZM124.179 75.4738C124.299 75.4738 124.359 75.5338 124.359 75.6538C124.323 76.2178 124.143 76.6858 123.819 77.0578C123.495 77.4178 123.087 77.6638 122.595 77.7958C122.559 77.8078 122.541 77.8378 122.541 77.8858V85.9498C122.541 86.0698 122.481 86.1298 122.361 86.1298H121.011C120.891 86.1298 120.831 86.0698 120.831 85.9498V85.2838C120.831 85.2598 120.819 85.2478 120.795 85.2478C120.783 85.2358 120.765 85.2418 120.741 85.2658C120.261 85.9258 119.523 86.2558 118.527 86.2558C117.939 86.2558 117.393 86.1418 116.889 85.9138C116.397 85.6858 116.001 85.3498 115.701 84.9058C115.401 84.4618 115.251 83.9218 115.251 83.2858V77.1478C115.251 77.0278 115.311 76.9678 115.431 76.9678H116.781C116.901 76.9678 116.961 77.0278 116.961 77.1478V82.7458C116.961 83.3698 117.123 83.8618 117.447 84.2218C117.783 84.5818 118.251 84.7618 118.851 84.7618C119.451 84.7618 119.931 84.5818 120.291 84.2218C120.651 83.8498 120.831 83.3578 120.831 82.7458V77.1478C120.831 77.0278 120.891 76.9678 121.011 76.9678H121.803C122.151 76.9678 122.469 76.8658 122.757 76.6618C123.045 76.4458 123.207 76.1098 123.243 75.6538C123.243 75.5338 123.303 75.4738 123.423 75.4738H124.179ZM118.887 89.6398C118.575 89.6398 118.311 89.5318 118.095 89.3158C117.891 89.1118 117.789 88.8538 117.789 88.5418C117.789 88.2178 117.891 87.9538 118.095 87.7498C118.311 87.5458 118.575 87.4438 118.887 87.4438C119.211 87.4438 119.475 87.5458 119.679 87.7498C119.883 87.9538 119.985 88.2178 119.985 88.5418C119.985 88.8538 119.877 89.1118 119.661 89.3158C119.457 89.5318 119.199 89.6398 118.887 89.6398ZM128.787 86.2738C127.875 86.2738 127.095 86.0458 126.447 85.5898C125.799 85.1218 125.355 84.4918 125.115 83.6998C124.935 83.1478 124.845 82.4218 124.845 81.5218C124.845 80.6938 124.935 79.9678 125.115 79.3438C125.355 78.5758 125.799 77.9638 126.447 77.5078C127.107 77.0518 127.887 76.8238 128.787 76.8238C129.687 76.8238 130.473 77.0518 131.145 77.5078C131.817 77.9638 132.255 78.5398 132.459 79.2358C132.531 79.4278 132.579 79.6258 132.603 79.8298C132.603 79.9258 132.549 79.9858 132.441 80.0098L131.091 80.2078H131.055C130.971 80.2078 130.911 80.1538 130.875 80.0458L130.821 79.7578C130.725 79.3498 130.491 79.0078 130.119 78.7318C129.747 78.4558 129.297 78.3178 128.769 78.3178C128.253 78.3178 127.815 78.4558 127.455 78.7318C127.095 79.0078 126.861 79.3738 126.753 79.8298C126.645 80.2618 126.591 80.8318 126.591 81.5398C126.591 82.2358 126.645 82.7998 126.753 83.2318C126.873 83.7118 127.107 84.0898 127.455 84.3658C127.815 84.6418 128.253 84.7798 128.769 84.7798C129.297 84.7798 129.747 84.6418 130.119 84.3658C130.503 84.0898 130.743 83.7298 130.839 83.2858C130.851 83.2738 130.851 83.2618 130.839 83.2498C130.839 83.2258 130.845 83.2078 130.857 83.1958V83.1238C130.893 83.0278 130.959 82.9918 131.055 83.0158L132.405 83.2318C132.501 83.2558 132.549 83.3038 132.549 83.3758V83.4478C132.549 83.5558 132.519 83.6878 132.459 83.8438C132.255 84.5758 131.817 85.1638 131.145 85.6078C130.473 86.0518 129.687 86.2738 128.787 86.2738Z" fill="#B9BBBD"/>
<path d="M1.584 36.104C1.584 32.776 2.304 29.816 3.744 27.224C5.184 24.6 7.184 22.568 9.744 21.128C12.336 19.656 15.264 18.92 18.528 18.92C22.528 18.92 25.952 19.976 28.8 22.088C31.648 24.2 33.552 27.08 34.512 30.728H25.488C24.816 29.32 23.856 28.248 22.608 27.512C21.392 26.776 20 26.408 18.432 26.408C15.904 26.408 13.856 27.288 12.288 29.048C10.72 30.808 9.936 33.16 9.936 36.104C9.936 39.048 10.72 41.4 12.288 43.16C13.856 44.92 15.904 45.8 18.432 45.8C20 45.8 21.392 45.432 22.608 44.696C23.856 43.96 24.816 42.888 25.488 41.48H34.512C33.552 45.128 31.648 48.008 28.8 50.12C25.952 52.2 22.528 53.24 18.528 53.24C15.264 53.24 12.336 52.52 9.744 51.08C7.184 49.608 5.184 47.576 3.744 44.984C2.304 42.392 1.584 39.432 1.584 36.104ZM47.7465 46.664H58.4985V53H39.5385V19.304H47.7465V46.664ZM78.3495 53.336C75.1815 53.336 72.2695 52.6 69.6135 51.128C66.9895 49.656 64.8935 47.608 63.3255 44.984C61.7895 42.328 61.0215 39.352 61.0215 36.056C61.0215 32.76 61.7895 29.8 63.3255 27.176C64.8935 24.552 66.9895 22.504 69.6135 21.032C72.2695 19.56 75.1815 18.824 78.3495 18.824C81.5175 18.824 84.4135 19.56 87.0375 21.032C89.6935 22.504 91.7735 24.552 93.2775 27.176C94.8135 29.8 95.5815 32.76 95.5815 36.056C95.5815 39.352 94.8135 42.328 93.2775 44.984C91.7415 47.608 89.6615 49.656 87.0375 51.128C84.4135 52.6 81.5175 53.336 78.3495 53.336ZM78.3495 45.848C81.0375 45.848 83.1815 44.952 84.7815 43.16C86.4135 41.368 87.2295 39 87.2295 36.056C87.2295 33.08 86.4135 30.712 84.7815 28.952C83.1815 27.16 81.0375 26.264 78.3495 26.264C75.6295 26.264 73.4535 27.144 71.8215 28.904C70.2215 30.664 69.4215 33.048 69.4215 36.056C69.4215 39.032 70.2215 41.416 71.8215 43.208C73.4535 44.968 75.6295 45.848 78.3495 45.848ZM98.7559 36.104C98.7559 32.776 99.4759 29.816 100.916 27.224C102.356 24.6 104.356 22.568 106.916 21.128C109.508 19.656 112.436 18.92 115.7 18.92C119.7 18.92 123.124 19.976 125.972 22.088C128.82 24.2 130.724 27.08 131.684 30.728H122.66C121.988 29.32 121.028 28.248 119.78 27.512C118.564 26.776 117.172 26.408 115.604 26.408C113.076 26.408 111.028 27.288 109.46 29.048C107.892 30.808 107.108 33.16 107.108 36.104C107.108 39.048 107.892 41.4 109.46 43.16C111.028 44.92 113.076 45.8 115.604 45.8C117.172 45.8 118.564 45.432 119.78 44.696C121.028 43.96 121.988 42.888 122.66 41.48H131.684C130.724 45.128 128.82 48.008 125.972 50.12C123.124 52.2 119.7 53.24 115.7 53.24C112.436 53.24 109.508 52.52 106.916 51.08C104.356 49.608 102.356 47.576 100.916 44.984C99.4759 42.392 98.7559 39.432 98.7559 36.104ZM156.246 53L144.918 38.12V53H136.71V19.304H144.918V34.088L156.15 19.304H165.798L152.742 35.816L166.278 53H156.246Z" fill="#333333"/>
<path d="M178.387 25.88V32.696H189.379V39.032H178.387V46.424H190.819V53H170.179V19.304H190.819V25.88H178.387ZM204.356 25.88V32.696H215.348V39.032H204.356V46.424H216.788V53H196.148V19.304H216.788V25.88H204.356Z" fill="#FFD700"/>
</svg>
