<svg width="59" height="44" viewBox="0 0 59 44" fill="none" xmlns="http://www.w3.org/2000/svg">
<path d="M5.79584 43.2747C8.95723 43.2747 11.5403 40.6627 11.5403 37.466V0.0410156H45.082V37.466C45.082 40.6627 42.4989 43.2747 39.3375 43.2747" fill="#FFD700"/>
<path d="M33.593 37.4659V33.0607H0.0513763V37.4659C0.0513763 40.6626 2.63447 43.2746 5.79587 43.2746H39.3375C36.1761 43.2746 33.593 40.6626 33.593 37.4659Z" fill="#816A07"/>
<path d="M21.8342 7.48682H17.5548V9.35807H21.8342V7.48682Z" fill="white"/>
<path d="M38.2965 7.48682H25.1498V9.35807H38.2965V7.48682Z" fill="#F7C604"/>
<path d="M21.8342 14.1142H17.5548V15.9854H21.8342V14.1142Z" fill="white"/>
<path d="M38.2965 14.1142H25.1498V15.9854H38.2965V14.1142Z" fill="#F7C604"/>
<path d="M21.8342 20.7417H17.5548V22.6129H21.8342V20.7417Z" fill="white"/>
<path d="M38.2965 20.7417H25.1498V22.6129H38.2965V20.7417Z" fill="#F7C604"/>
<path d="M21.8342 27.369H17.5548V29.2403H21.8342V27.369Z" fill="white"/>
<path d="M38.2965 27.369H25.1498V29.2403H38.2965V27.369Z" fill="#F7C604"/>
<path opacity="0.1" d="M45.082 27.681V5.42091C44.6193 5.34294 44.1181 5.30396 43.6169 5.30396C37.4869 5.30396 32.5135 10.3329 32.5135 16.5315C32.5135 22.73 37.4869 27.7589 43.6169 27.7589C44.1181 27.7979 44.6193 27.759 45.082 27.681Z" fill="#0C1E5B"/>
<path d="M47.5115 25.5371C53.6439 25.5371 58.6151 20.5103 58.6151 14.3094C58.6151 8.10859 53.6439 3.08182 47.5115 3.08182C41.3792 3.08182 36.408 8.10859 36.408 14.3094C36.408 20.5103 41.3792 25.5371 47.5115 25.5371Z" fill="#FF5B5B"/>
<path d="M49.4772 15.0889V8.11069H45.5447V15.0889H42.9231L47.5109 20.5077L52.0988 15.0889H49.4772Z" fill="white"/>
</svg>
