<svg width="60" height="44" viewBox="0 0 60 44" fill="none" xmlns="http://www.w3.org/2000/svg">
<path d="M6.51404 43.2747C9.67543 43.2747 12.2585 40.6627 12.2585 37.466V0.0410156H45.8002V37.466C45.8002 40.6627 43.2171 43.2747 40.0557 43.2747" fill="#FFD700"/>
<path d="M34.3113 37.4659V33.0607H0.769653V37.4659C0.769653 40.6626 3.35275 43.2746 6.51414 43.2746H40.0558C36.8944 43.2746 34.3113 40.6626 34.3113 37.4659Z" fill="#816A07"/>
<path d="M22.5524 7.48682H18.2729V9.35807H22.5524V7.48682Z" fill="#F7C604"/>
<path d="M39.0147 7.48682H25.8679V9.35807H39.0147V7.48682Z" fill="#F3F2F7"/>
<path d="M22.5524 14.1142H18.2729V15.9854H22.5524V14.1142Z" fill="#F7C604"/>
<path d="M39.0147 14.1142H25.8679V15.9854H39.0147V14.1142Z" fill="#F3F2F7"/>
<path d="M22.5524 20.7417H18.2729V22.6129H22.5524V20.7417Z" fill="#F7C604"/>
<path d="M39.0147 20.7417H25.8679V22.6129H39.0147V20.7417Z" fill="#F3F2F7"/>
<path d="M22.5524 27.369H18.2729V29.2403H22.5524V27.369Z" fill="#F7C604"/>
<path d="M39.0147 27.369H25.8679V29.2403H39.0147V27.369Z" fill="#F3F2F7"/>
<path opacity="0.1" d="M45.8003 27.681V5.42091C45.3376 5.34294 44.8364 5.30396 44.3352 5.30396C38.2052 5.30396 33.2318 10.3329 33.2318 16.5315C33.2318 22.73 38.2052 27.7589 44.3352 27.7589C44.8364 27.7979 45.3376 27.759 45.8003 27.681Z" fill="#0C1E5B"/>
<path d="M48.2298 25.5371C54.3621 25.5371 59.3333 20.5103 59.3333 14.3094C59.3333 8.10859 54.3621 3.08182 48.2298 3.08182C42.0974 3.08182 37.1262 8.10859 37.1262 14.3094C37.1262 20.5103 42.0974 25.5371 48.2298 25.5371Z" fill="#FF5B5B"/>
<path d="M52.5886 9.73077L43.5247 18.8846M43.5247 9.73077L52.5886 18.8846" stroke="white" stroke-width="4"/>
<path d="M52.5886 9.73077L43.5247 18.8846M43.5247 9.73077L52.5886 18.8846" stroke="white" stroke-width="4"/>
</svg>
